<?xml version="1.0" encoding="UTF-8"?>
<svg xmlns="http://www.w3.org/2000/svg" viewBox="0 0 16 16" width="512" height="512" shape-rendering="crispEdges">
  <rect width="16" height="16" fill="#000"/>
  <!-- Ghost body -->
  <rect x="6" y="0" width="4" height="1" fill="#50C8C8"/>
  <rect x="5" y="1" width="6" height="1" fill="#50C8C8"/>
  <rect x="4" y="2" width="8" height="1" fill="#50C8C8"/>
  <rect x="3" y="3" width="10" height="1" fill="#50C8C8"/>
  <rect x="2" y="4" width="12" height="1" fill="#50C8C8"/>
  <rect x="2" y="5" width="1" height="1" fill="#50C8C8"/>
  <rect x="5" y="5" width="4" height="1" fill="#50C8C8"/>
  <rect x="11" y="5" width="3" height="1" fill="#50C8C8"/>
  <rect x="2" y="6" width="1" height="1" fill="#50C8C8"/>
  <rect x="5" y="6" width="4" height="1" fill="#50C8C8"/>
  <rect x="11" y="6" width="3" height="1" fill="#50C8C8"/>
  <rect x="2" y="7" width="1" height="1" fill="#50C8C8"/>
  <rect x="4" y="7" width="1" height="1" fill="#50C8C8"/>
  <rect x="5" y="7" width="4" height="1" fill="#50C8C8"/>
  <rect x="10" y="7" width="1" height="1" fill="#50C8C8"/>
  <rect x="11" y="7" width="3" height="1" fill="#50C8C8"/>
  <rect x="2" y="8" width="12" height="5" fill="#50C8C8"/>
  <rect x="2" y="13" width="2" height="1" fill="#50C8C8"/>
  <rect x="6" y="13" width="4" height="1" fill="#50C8C8"/>
  <rect x="12" y="13" width="2" height="1" fill="#50C8C8"/>
  <rect x="2" y="14" width="1" height="1" fill="#50C8C8"/>
  <rect x="7" y="14" width="2" height="1" fill="#50C8C8"/>
  <rect x="13" y="14" width="1" height="1" fill="#50C8C8"/>
  <!-- Eyes (white) -->
  <rect x="3" y="5" width="2" height="3" fill="#FFF"/>
  <rect x="9" y="5" width="2" height="3" fill="#FFF"/>
  <!-- Pupils (dark blue) -->
  <rect x="4" y="7" width="1" height="1" fill="#1E1E78"/>
  <rect x="10" y="7" width="1" height="1" fill="#1E1E78"/>
  <!-- Sparkles -->
  <circle cx="13.5" cy="1.5" r="0.3" fill="#B432C8"/>
  <line x1="14" y1="3.5" x2="15" y2="3.5" stroke="#00DCDC" stroke-width="0.2"/>
  <line x1="14.5" y1="3" x2="14.5" y2="4" stroke="#00DCDC" stroke-width="0.2"/>
</svg>